<svg width="66" height="63" viewBox="0 0 66 63" fill="none" xmlns="http://www.w3.org/2000/svg">
<path d="M13.008 62.7308L25.4416 52.8738L25.0405 46.1648L24.3112 40.8899L17.748 39.9419L12.5218 61.6369C12.461 62.0623 12.6433 62.4877 12.9958 62.7308H13.008Z" fill="#0ACFFB"/>
<path d="M0.525879 24.3118L16.3748 33.0627L19.9967 30.6441L24.0805 26.9978L23.6551 21.7959L1.41313 23.5339C0.987734 23.6069 0.635266 23.9107 0.525879 24.3239V24.3118Z" fill="#6DF4C0"/>
<path d="M17.7603 39.9541L25.0528 46.1648L32.1994 42.3241L33.2082 34.9344L27.277 29.3192L20.0088 30.644L0.52588 24.3118C0.380031 24.7129 0.477264 25.1626 0.781115 25.4664L17.7603 39.9419V39.9541Z" fill="#9AF6D3"/>
<path d="M53.4324 62.7794L50.1508 51.549L41.3635 46.1648L36.6598 45.1682L33.1959 51.1723L52.217 62.8523C52.606 63.0711 53.08 63.0468 53.4324 62.7794Z" fill="#FDDA5C"/>
<path d="M48.6559 39.954L48.8017 33.3908L46.4195 30.644L39.8685 28.8452L33.2202 34.9344L34.7759 42.6036L41.3756 46.1769L53.4446 62.7915C53.8092 62.5363 53.9794 62.0866 53.8943 61.6612L48.668 39.9662L48.6559 39.954Z" fill="#FCE87B"/>
<path d="M65.9391 24.2996L53.5054 25.2476L46.4075 30.644L48.656 39.9541L65.6352 25.4786C65.9634 25.1869 66.0849 24.725 65.9391 24.2996Z" fill="#D6B1ED"/>
<path d="M42.7491 21.7959C38.9084 17.4691 35.9185 18.4171 33.2082 21.0545L29.8293 27.8122L33.2082 34.9345L46.4075 30.6441L65.9391 24.2997C65.8054 23.8743 65.4408 23.5704 65.0032 23.534L42.7613 21.7959H42.7491Z" fill="#E5C9F3"/>
<path d="M33.2081 0.574829L30.0724 15.816L33.2081 21.0666L42.7491 21.808L34.2291 1.18253C34.0346 0.805756 33.6335 0.562675 33.2081 0.586983V0.574829Z" fill="#FD91BA"/>
<path d="M32.7827 0.574811C32.5153 0.684197 32.2966 0.902971 32.1872 1.17036L23.6672 21.7958L20.0088 30.644L33.2081 34.9344V0.574811C33.0623 0.550503 32.9286 0.550503 32.7827 0.574811Z" fill="#FFA6C5"/>
<path d="M33.2082 51.1723L41.3635 46.1648L33.2082 34.9344L25.0528 46.1648L13.0203 62.7308C13.3606 62.9982 13.8224 63.0347 14.1992 62.8523L33.2203 51.1723H33.2082Z" fill="#62D9FA"/>
<path d="M65.939 24.2996L47.5377 35.2991L46.4196 30.644L65.9511 24.2996H65.939Z" fill="#CA96E5"/>
<path d="M53.4325 62.7794L37.2798 48.6685L41.3636 46.1648L53.4325 62.7794Z" fill="#F8C228"/>
<path d="M12.9838 62.7794L21.4065 43.0656L25.0528 46.1648L12.9838 62.7794Z" fill="#00BFF8"/>
<path d="M0.477295 24.2996L21.832 26.22L20.0089 30.644L0.477295 24.2996Z" fill="#3AEDBC"/>
<path d="M33.2081 0.514099L37.9847 21.4191L33.2081 21.0545V0.514099Z" fill="#FC76A8"/>
</svg>
